Coordinates
version=1
nRows=5
nColumns=63
inDegrees=yes

Units are S.I. units (second, meters, Newtons, ...)
If the header above contains a line with 'inDegrees', this indicates whether rotational values are in degrees (yes) or radians (no).

endheader
time	pelvis_tilt	pelvis_list	pelvis_rotation	pelvis_tx	pelvis_ty	pelvis_tz	hip_flexion_r	hip_adduction_r	hip_rotation_r	knee_angle_r	knee_angle_r_beta	ankle_angle_r	subtalar_angle_r	mtp_angle_r	hip_flexion_l	hip_adduction_l	hip_rotation_l	knee_angle_l	knee_angle_l_beta	ankle_angle_l	subtalar_angle_l	mtp_angle_l	L5_S1_Flex_Ext	L5_S1_Lat_Bending	L5_S1_axial_rotation	L4_L5_Flex_Ext	L4_L5_Lat_Bending	L4_L5_axial_rotation	L3_L4_Flex_Ext	L3_L4_Lat_Bending	L3_L4_axial_rotation	L2_L3_Flex_Ext	L2_L3_Lat_Bending	L2_L3_axial_rotation	L1_L2_Flex_Ext	L1_L2_Lat_Bending	L1_L2_axial_rotation	L1_T12_Flex_Ext	L1_T12_Lat_Bending	L1_T12_axial_rotation	Abs_r3	Abs_r2	Abs_r1	Abs_t1	Abs_t2	neck_flexion	neck_bending	neck_rotation	arm_flex_r	arm_add_r	arm_rot_r	elbow_flex_r	pro_sup_r	wrist_flex_r	wrist_dev_r	arm_flex_l	arm_add_l	arm_rot_l	elbow_flex_l	pro_sup_l	wrist_flex_l	wrist_dev_l
      7.50000000	    -52.80949861	     -1.44180394	      4.67261587	     -0.25309486	      1.01803606	      0.00935078	     89.15175154	     -8.85100328	     -6.34790631	     45.99447466	      0.80275502	      8.36649883	     -3.44280179	      0.00000000	    119.86151844	      0.99052041	      6.48133906	    117.91833053	      2.05806312	     10.21609134	      1.47123441	      0.00000000	     -0.07239424	      0.15579856	     -0.72830165	     -0.13444335	      0.20721208	     -0.77382050	     -0.11893650	      0.37880862	     -0.77382050	     -0.08273938	      0.37880862	     -0.63726394	     -0.06722529	      0.31770442	     -0.59174509	     -0.04136607	      0.24133197	     -0.54622624	     -0.51710484	      1.76242447	     -4.05059528	      0.00000000	      0.00000000	     -0.00000000	      0.00000000	      0.00000000	     79.28839796	    -12.04460531	     36.80307646	     18.77645771	     39.39498678	      0.00000000	      5.00000014	     74.76215343	    -13.31876496	     28.31299704	     28.43934744	     46.16280390	      0.00000000	      5.00000014
      7.50800000	    -52.76061203	     -1.32080908	      4.81432842	     -0.25275783	      1.01777623	      0.00932618	     88.08324175	     -8.86887491	     -6.39958503	     45.10184344	      0.78717567	      8.43263521	     -3.45189280	      0.00000000	    120.93776401	      1.01866792	      6.18742472	    118.47733569	      2.06781960	     10.27897363	      1.59045822	      0.00000000	     -0.07211953	      0.12871946	     -0.74393714	     -0.13393318	      0.17119688	     -0.79043321	     -0.11848518	      0.31296850	     -0.79043321	     -0.08242541	      0.31296850	     -0.65094500	     -0.06697020	      0.26248473	     -0.60444893	     -0.04120910	      0.19938645	     -0.55795286	     -0.51514259	      1.45610029	     -4.13755521	      0.00000000	      0.00000000	     -0.00000000	      0.00000000	      0.00000000	     79.10646915	    -12.10587984	     36.65791639	     18.82559619	     39.32167351	      0.00000000	      5.00000014	     74.76775300	    -13.27380579	     28.38956690	     28.54229993	     46.17045000	      0.00000000	      5.00000014
      7.51700000	    -52.72913559	     -1.19812922	      5.02022288	     -0.25256164	      1.01756501	      0.00916149	     87.12864761	     -8.95496408	     -6.37359817	     44.41176318	      0.77513149	      8.47243815	     -3.56389605	      0.00000000	    121.96538869	      1.08138774	      5.82763967	    118.88492076	      2.07493330	     10.49398316	      1.70153728	      0.00000000	     -0.07119188	      0.10295962	     -0.77243786	     -0.13221045	      0.13693629	     -0.82071523	     -0.11696115	      0.25033601	     -0.82071523	     -0.08136520	      0.25033601	     -0.67588313	     -0.06610878	      0.20995525	     -0.62760576	     -0.04067904	      0.15948445	     -0.57932840	     -0.50851651	      1.16469978	     -4.29606767	      0.00000000	      0.00000000	     -0.00000000	      0.00000000	      0.00000000	     78.97008871	    -12.14197934	     36.45562387	     18.87600376	     39.22025509	      0.00000000	      5.00000014	     74.77994267	    -13.24065038	     28.44995858	     28.63259943	     46.17364327	      0.00000000	      5.00000014
      7.52500000	    -52.70241225	     -1.01350253	      5.29046252	     -0.25248854	      1.01753425	      0.00887815	     86.23386435	     -9.11651268	     -6.25313782	     43.81159239	      0.76465654	      8.53567291	     -3.76263241	      0.00000000	    122.89111299	      1.17592042	      5.35787810	    119.10716183	      2.07881214	     10.83730966	      1.77972248	      0.00000000	     -0.07498296	      0.07170439	     -0.81758069	     -0.13925086	      0.09536684	     -0.86867948	     -0.12318951	      0.17434206	     -0.86867948	     -0.08569803	      0.17434206	     -0.71538310	     -0.06962918	      0.14621960	     -0.66428431	     -0.04284527	      0.11107011	     -0.61318552	     -0.53559581	      0.81113445	     -4.54713851	      0.00000000	      0.00000000	     -0.00000000	      0.00000000	      0.00000000	     78.83635619	    -12.13468932	     36.17170709	     18.93283221	     39.13778884	      0.00000000	      5.00000014	     74.83823514	    -13.24105382	     28.47226200	     28.70092763	     46.16090440	      0.00000000	      5.00000014
      7.53300000	    -52.72504551	     -0.87636378	      5.53924355	     -0.25258578	      1.01742946	      0.00858974	     85.53781396	     -9.26216629	     -6.08524090	     43.51636867	      0.75950391	      8.43990111	     -3.98581538	      0.00000000	    123.83604154	      1.25726794	      4.94215393	    119.22247146	      2.08082467	     11.24734709	      1.87997529	      0.00000000	     -0.07133240	      0.04578059	     -0.85906914	     -0.13247140	      0.06088819	     -0.91276096	     -0.11719200	      0.11131093	     -0.91276096	     -0.08152580	      0.11131093	     -0.75168549	     -0.06623927	      0.09335578	     -0.69799367	     -0.04075933	      0.07091414	     -0.64430185	     -0.50952020	      0.51787922	     -4.77788482	      0.00000000	      0.00000000	     -0.00000000	      0.00000000	      0.00000000	     78.78785166	    -12.14987795	     36.00674689	     18.92872196	     39.05457585	      0.00000000	      5.00000014	     74.89056411	    -13.20485817	     28.50410949	     28.72727768	     46.16172202	      0.00000000	      5.00000014
